<svg width="370" height="206" fill="none" xmlns="http://www.w3.org/2000/svg">
  <path d="M110.142 154.814c-5.151-4.387-5.391-11.356-2.854-17.391 7.666-18.237 20.06-23.658 20.06-23.658 7.259-3.965 15.447-2.318 17.917-.216 5.013 4.273 4.774 10.355.639 14.842 0 0-3.997 4.058-6.625 5.209-4.078 1.786-9.862 8.082-10.934 14.345.141 3.172-4.656 6.541-4.656 6.541s-7.293 5.658-13.547.328" fill="#737373"/>
  <path d="M117.107 157.06c3.699-.335 6.582-2.574 6.582-2.574s4.797-3.369 4.656-6.541c1.072-6.264 6.856-12.559 10.934-14.345 2.628-1.151 6.625-5.209 6.625-5.209 2.233-2.425 3.329-5.311 3.077-8.128-.147-1.626-.742-3.231-1.828-4.706-.314.925-.69 1.815-1.15 2.643-.145.261-.376.386-.614.407-.551.053-1.142-.455-.799-1.072.581-1.043 1.014-2.189 1.354-3.364-.214-.209-.441-.418-.679-.622-1.598-1.36-5.583-2.528-10.165-2.113-2.502.226-5.187.927-7.752 2.329 0 0-12.394 5.421-20.06 23.658-1.196 2.848-1.775 5.901-1.513 8.795.294 3.24 1.647 6.281 4.367 8.596 2.319 1.978 4.787 2.444 6.965 2.246" fill="#C9E265"/>
  <path d="M115.018 158.968c5.148 4.386 12.063 3.515 17.617.046 16.774-10.476 20.149-23.581 20.149-23.581 2.755-7.802-.174-15.624-2.644-17.73-5.013-4.27-10.978-3.065-14.745 1.734 0 0-3.369 4.594-4.085 7.374-1.114 4.311-6.406 11.028-12.414 13.084-3.157.367-5.713 5.64-5.713 5.64s-4.423 8.103 1.835 13.432" fill="#737373"/>
  <path d="M144.59 117.535c1.149-2.066 1.718-4.519 2.139-6.821 1.178-6.448.419-13.1351-1.38-19.3954-2.316-8.0505-7.248-15.0584-8.615-23.4143-.702-4.292-.341-8.9521 1.956-12.7349 1.07-1.7584 2.61-3.4901 4.492-4.4073.906-.4423 1.444 1.0249.549 1.4612.009-.0046.082-.0516-.164.097-.308.1846-.6.3957-.884.6153-.936.7264-1.718 1.6312-2.387 2.6041-2.583 3.7556-2.646 8.6401-1.881 12.9646.696 3.9402 2.24 7.7188 3.98 11.3011 2.024 4.1679 3.778 8.3852 4.937 12.8822 1.534 5.952 1.993 12.2304.932 18.3044-.421 2.418-1.057 5.04-2.261 7.208-.485.875-1.903.22-1.413-.665" fill="#C9E265"/>
  <path d="M155.998 32.8648s4.712 28.2963-14.745 21.4394c-15.001-15.5544 14.745-21.4394 14.745-21.4394M113.165 52.9207s27.275-8.8536 23.38 11.4132c-13.153 17.1461-23.38-11.4132-23.38-11.4132M166.333 72.2009s-5.041 28.2411-21.076 15.2545c-8.921-19.6843 21.076-15.2545 21.076-15.2545z" fill="#C9E265"/>
  <path d="M141.253 54.3044c2.629-13.0055 14.745-21.4394 14.745-21.4394s-19.837 3.9243-18.942 13.8355c.173 1.9142 1.119 4.051 3.131 6.4268.326.3858.68.776 1.064 1.1736.001.0011.001.0023.002.0035M128.613 69.7874c2.424-.2227 5.052-1.7555 7.805-5.289.041-.054.084-.1093.127-.1645-13.247-.6748-23.379-11.4132-23.379-11.4132s6.334 17.6923 15.447 16.8667M145.257 87.4555c6.834-11.3718 21.076-15.2546 21.076-15.2546s-5.065-.748-10.415-.2634c-6.266.5678-12.924 2.8292-12.274 9.9681.144 1.595.653 3.4329 1.613 5.5499zM116.195 157.159s.003.037.012.102c.007.072.014.184.015.334.011.294-.002.737-.086 1.296-.081.559-.243 1.232-.537 1.964-.29.738-.732 1.528-1.333 2.3-1.197 1.56-3.125 2.963-5.43 3.943-.286.133-.584.238-.88.356-.296.118-.601.217-.911.321l-.463.151-.47.137c-.318.088-.638.18-.962.272-.32.101-.642.177-.967.295-.321.116-.65.225-.971.351-.314.132-.63.267-.947.402l-.927.457c-1.217.647-2.3511 1.442-3.3492 2.357-1.0013.915-1.8608 1.943-2.5655 3.019-1.4189 2.151-2.1962 4.466-2.5725 6.469-.3783 2.015-.3791 3.736-.2627 4.917.0507.594.1362 1.054.196 1.368.072.31.1089.476.1089.476s-.0338-.166-.0996-.477c-.0505-.315-.1266-.775-.1649-1.371-.0912-1.179-.0523-2.895.3661-4.882.2107-.994.5159-2.053.951-3.131.4354-1.073 1.0073-2.163 1.7246-3.203.714-1.043 1.5774-2.027 2.5699-2.9.9928-.871 2.1149-1.625 3.3139-2.226l.911-.427c.309-.122.62-.247.929-.369.312-.116.629-.211.942-.318.31-.106.645-.18.966-.272.321-.083.646-.168.964-.254l.487-.125.475-.147c.317-.097.635-.192.94-.311.307-.112.617-.212.912-.342 1.201-.485 2.319-1.076 3.304-1.761.981-.684 1.832-1.457 2.497-2.282.668-.819 1.168-1.667 1.503-2.466.342-.795.535-1.534.636-2.148.107-.618.131-1.112.132-1.451-.003-.172-.009-.303-.014-.394l-.013-.146-.93.116" fill="#737373"/>
  <path d="M105.203 168.405s-.041-.04-.119-.108c-.079-.074-.195-.177-.344-.304-.296-.256-.729-.602-1.257-1.002-.271-.192-.557-.411-.874-.62-.16-.105-.32-.213-.487-.326-.166-.104-.342-.21-.518-.32-.346-.226-.724-.423-1.104-.637-.379-.21-.7845-.392-1.1755-.592-.4099-.167-.8091-.353-1.2173-.501-.2037-.069-.4074-.139-.608-.208l-.3008-.105c-.0995-.025-.2023-.054-.3018-.079-.4003-.095-.7789-.227-1.1558-.272-.1847-.033-.3661-.064-.5441-.091-.1721-.032-.341-.063-.5074-.067-.3278-.021-.6273-.041-.892-.057-.267-.007-.4995.02-.6902.025-.3806.018-.599.029-.599.029s.2198.005.5995.011c.1888.008.4227-.003.6852.023.2599.033.5548.072.8783.115.1614.016.325.058.4979.099.1695.038.3427.082.5252.125.3636.07.7286.225 1.1119.341.0972.035.1941.067.291.099.0944.038.189.08.2868.121.189.08.3845.163.5768.246.391.165.7676.379 1.1543.566.371.22.7495.421 1.106.652.353.232.708.45 1.031.691.164.116.325.233.482.348.155.117.303.232.451.344.293.225.555.455.806.658.486.42.879.785 1.141 1.047.137.129.237.229.303.302.069.072.107.109.107.109l.661-.662M112.138 165.987s.029.01.081.027c.042.015.116.043.214.081.189.077.466.196.783.375.161.082.324.193.503.302.171.122.358.243.534.387.182.144.367.29.54.459.183.162.347.345.517.527.173.176.311.383.469.569.149.193.271.405.405.597.127.198.224.402.329.59.111.188.179.382.257.554.069.175.152.331.194.481.047.146.09.274.122.381.069.21.108.331.108.331s-.024-.126-.068-.341c-.023-.111-.05-.243-.08-.397-.023-.155-.088-.318-.14-.505-.06-.183-.104-.389-.194-.591-.087-.202-.161-.424-.268-.643-.114-.215-.216-.448-.349-.664-.138-.214-.257-.45-.42-.655-.154-.212-.307-.424-.481-.615-.163-.201-.342-.383-.518-.561-.173-.176-.356-.328-.526-.479-.182-.14-.345-.282-.512-.396-.322-.234-.616-.402-.824-.518-.106-.056-.191-.101-.257-.13-.061-.026-.091-.042-.091-.042l-.328.876M85.01 108.844c2.4613 0 4.402.852 5.822 2.556 1.42 1.704 2.13 4.071 2.13 7.1 0 .757-.0473 1.562-.142 2.414-.0947.757-.2367 1.42-.426 1.988-1.988-.473-4.1653-.757-6.532-.852-.568 4.165-2.0827 8.567-4.544 13.206-2.4613 4.544-5.4433 8.851-8.946 12.922-3.5027 3.976-7.3367 7.479-11.502 10.508-4.1653 3.029-8.2833 5.065-12.354 6.106-12.6853-.284-21.9627-3.597-27.832-9.94-5.7747-6.248-8.662-16.046-8.662-29.394 0-9.751 1.7987-19.17 5.396-28.258 3.5973-9.1827 8.378-17.324 14.342-24.424 5.964-7.1 12.78-12.78 20.448-17.04 7.7627-4.3547 15.8093-6.532 24.14-6.532 6.532 0 11.5967 1.3727 15.194 4.118 3.692 2.7453 5.538 6.6267 5.538 11.644 0 3.3133-.8047 6.39-2.414 9.23-1.5147 2.84-4.0707 5.9167-7.668 9.23-2.1773-.6627-4.0707-1.7987-5.68-3.408-1.6093-1.704-2.6033-3.6447-2.982-5.822 3.2187-2.3667 5.4907-4.544 6.816-6.532 1.3253-1.988 1.988-4.3547 1.988-7.1 0-4.3547-2.6033-6.532-7.81-6.532-4.26 0-8.8513 1.6093-13.774 4.828-4.828 3.124-9.7033 7.668-14.626 13.632-7.0053 8.4253-12.1173 17.1347-15.336 26.128-3.2187 8.899-4.828 18.933-4.828 30.104 0 4.165.426 7.952 1.278 11.36.852 3.408 1.988 6.39 3.408 8.946s3.0767 4.591 4.97 6.106c1.988 1.515 4.118 2.367 6.39 2.556 3.0293-.663 6.0587-2.177 9.088-4.544 3.0293-2.461 5.7747-5.301 8.236-8.52 2.556-3.313 4.686-6.816 6.39-10.508 1.7987-3.787 2.8873-7.384 3.266-10.792-2.6507.568-5.2067 1.136-7.668 1.704-2.3667.473-4.6387.71-6.816.71-2.84 0-5.3487-.71-7.526-2.13-2.0827-1.42-3.5027-3.361-4.26-5.822 1.704-.947 4.1653-1.941 7.384-2.982 3.3133-1.041 6.816-1.988 10.508-2.84 3.692-.947 7.2893-1.704 10.792-2.272 3.5973-.568 6.532-.852 8.804-.852zm1.8345 43.696c.2433-1.411.657-3.261 1.241-5.548.6326-2.336 1.3626-4.794 2.19-7.373.8273-2.628 1.7033-5.256 2.628-7.884.9246-2.628 1.825-4.988 2.701-7.081.6326-1.509 1.1923-2.677 1.679-3.504.4866-.876 1.022-1.606 1.606-2.19.6813.097 1.3865.268 2.1165.511.73.243 1.436.535 2.117.876.682.341 1.29.706 1.825 1.095.536.341.949.681 1.241 1.022-1.314 1.557-2.482 3.334-3.504 5.329-.973 1.995-1.971 4.55-2.9925 7.665 2.6275-2.336 4.9395-4.575 6.9345-6.716 2.044-2.141 3.942-4.526 5.694-7.154.292-.243.803-.365 1.533-.365.682 0 1.339.122 1.971.365.633.195 1.071.487 1.314.876-.876 2.336-1.314 4.648-1.314 6.935 0 2.141.317 3.747.949 4.818-.048.292-.389.852-1.022 1.679-.584.827-1.241 1.606-1.971 2.336-1.314-.681-2.482-1.606-3.504-2.774-1.022-1.217-1.776-2.531-2.263-3.942-2.287 1.606-4.234 3.188-5.84 4.745-1.606 1.509-2.9925 3.212-4.1605 5.11-1.1194 1.849-2.0927 3.991-2.92 6.424-.7787 2.433-1.533 5.329-2.263 8.687-.438-.049-.9734-.219-1.606-.511-.584-.243-1.1924-.56-1.825-.949-.584-.389-1.1194-.803-1.606-1.241-.4867-.438-.803-.852-.949-1.241zm66.6405-1.533c0-.973.097-2.336.292-4.088.243-1.752.535-3.65.876-5.694.389-2.044.803-4.137 1.241-6.278.487-2.141.973-4.064 1.46-5.767.633-2.287 1.606-4.039 2.92-5.256 1.363-1.265 3.042-1.898 5.037-1.898 1.071 0 2.117.17 3.139.511 1.071.341 1.703.779 1.898 1.314-1.411 1.168-2.555 2.628-3.431 4.38-.827 1.703-1.509 3.553-2.044 5.548-.487 1.947-.876 3.966-1.168 6.059-.243 2.044-.511 3.966-.803 5.767 1.606-2.141 3.115-4.064 4.526-5.767 1.46-1.752 2.75-3.139 3.869-4.161 1.509-1.411 2.531-2.579 3.066-3.504.535-.973.998-2.02 1.387-3.139.292-.876.633-1.898 1.022-3.066.438-1.168 1.144-2.239 2.117-3.212.195-.049.608-.073 1.241-.073.487 0 .998.024 1.533.073.584.049 1.119.146 1.606.292.487.146.9.316 1.241.511.341.195.535.438.584.73-.779 1.022-1.509 2.628-2.19 4.818-.681 2.141-1.29 4.502-1.825 7.081-.535 2.579-1.022 5.159-1.46 7.738-.438 2.531-.827 4.672-1.168 6.424.195-.097.633-.487 1.314-1.168.681-.681 1.436-1.533 2.263-2.555.876-1.022 1.776-2.141 2.701-3.358.973-1.217 1.825-2.409 2.555-3.577.925-1.411 1.679-2.725 2.263-3.942.633-1.265 1.168-2.604 1.606-4.015.487-1.411.925-2.969 1.314-4.672.389-1.752.803-3.82 1.241-6.205.292-.389.925-.706 1.898-.949 1.022-.292 1.947-.438 2.774-.438.73 0 1.265.122 1.606.365-.243 2.725-.706 5.159-1.387 7.3-.633 2.141-1.509 4.234-2.628 6.278-1.119 1.995-2.506 4.015-4.161 6.059-1.655 1.995-3.601 4.185-5.84 6.57-.925.973-1.947 2.044-3.066 3.212-1.071 1.168-2.141 2.263-3.212 3.285-1.022.973-1.995 1.801-2.92 2.482-.876.681-1.557 1.022-2.044 1.022-1.119 0-2.044-.438-2.774-1.314-.73-.876-1.095-1.995-1.095-3.358 0-1.411.049-2.628.146-3.65.146-1.071.365-2.19.657-3.358.292-1.071.511-1.971.657-2.701.195-.73.341-1.363.438-1.898.146-.535.243-.998.292-1.387.049-.389.097-.779.146-1.168-.389.195-.9.608-1.533 1.241-.633.584-1.29 1.29-1.971 2.117-.681.779-1.363 1.582-2.044 2.409-.681.827-1.241 1.533-1.679 2.117-.925 1.265-1.728 2.385-2.409 3.358-.681.973-1.338 1.898-1.971 2.774-.584.876-1.168 1.776-1.752 2.701-.584.876-1.265 1.825-2.044 2.847-1.557-.487-2.677-1.217-3.358-2.19-.633-.973-.949-2.166-.949-3.577zm83.498 12.081c-2.178 1.136-4.497 1.704-6.958 1.704-3.03-.379-5.964-1.136-8.804-2.272-2.746-1.136-4.781-2.509-6.106-4.118-.758-4.639-1.373-8.899-1.846-12.78-.474-3.881-.852-7.526-1.136-10.934-.284-3.503-.474-6.816-.568-9.94-.095-3.219-.142-6.437-.142-9.656 0-4.26.047-8.757.142-13.49.094-4.7333.189-9.7507.284-15.052.189-5.396.331-11.1233.426-17.182.094-6.1533.142-12.8273.142-20.022 1.23 0 3.076.3787 5.538 1.136 2.461.6627 4.875 1.4673 7.242 2.414 2.461.9467 4.638 1.9407 6.532 2.982 1.893.9467 2.934 1.7513 3.124 2.414-.947 2.6507-1.799 6.106-2.556 10.366-.663 4.26-1.231 8.9933-1.704 14.2-.379 5.2067-.663 10.6973-.852 16.472-.19 5.775-.284 11.502-.284 17.182 0 4.26.047 8.094.142 11.502.094 3.313.189 6.343.284 9.088.189 2.651.426 5.159.71 7.526.284 2.272.615 4.544.994 6.816 2.65-8.047 5.538-16.093 8.662-24.14 3.218-8.047 6.484-15.762 9.798-23.146 3.408-7.4787 6.768-14.4367 10.082-20.874 3.313-6.4373 6.437-12.0227 9.372-16.756 3.029-4.828 5.727-8.6147 8.094-11.36 2.366-2.84 4.307-4.3547 5.822-4.544 1.041.1893 2.13.6153 3.266 1.278 1.23.568 2.366 1.278 3.408 2.13 1.041.852 1.988 1.7987 2.84 2.84.852 1.0413 1.514 2.0827 1.988 3.124-3.503 1.2307-7.29 4.118-11.36 8.662-3.976 4.544-8 10.0347-12.07 16.472-4.071 6.3427-8.047 13.3007-11.928 20.874-3.787 7.479-7.242 14.815-10.366 22.01-3.03 7.195-5.633 13.916-7.81 20.164-2.178 6.248-3.645 11.218-4.402 14.91zm21.096-13.979c0-.438.025-.973.073-1.606.098-.681.244-1.557.438-2.628.195-1.119.438-2.458.73-4.015.341-1.557.755-3.431 1.241-5.621.098-.487.317-1.265.657-2.336.341-1.071.779-2.19 1.314-3.358.584-1.217 1.266-2.385 2.044-3.504.828-1.119 1.801-1.947 2.92-2.482.828.195 1.923.706 3.285 1.533 1.363.779 2.531 1.874 3.504 3.285-1.119 1.265-2.068 2.531-2.847 3.796-.73 1.265-1.411 2.579-2.044 3.942-.584 1.363-1.143 2.774-1.679 4.234-.486 1.46-1.046 2.993-1.679 4.599-.535 1.363-1.022 2.774-1.46 4.234-.438 1.411-.681 2.652-.73 3.723 0 .876-.024 1.484-.073 1.825 0 .389-.121.584-.365.584-.194 0-.584-.122-1.168-.365s-1.192-.608-1.825-1.095c-.584-.535-1.119-1.192-1.606-1.971-.486-.779-.73-1.703-.73-2.774zm13.943-31.682c0-.292.073-.73.219-1.314-.243-.243-.462-.608-.657-1.095-.146-.487-.219-.925-.219-1.314 0-.438.049-1.022.146-1.752.146-.779.317-1.606.511-2.482.195-.876.438-1.776.73-2.701.292-.973.584-1.849.876-2.628.584 0 1.29.17 2.117.511.876.292 1.752.706 2.628 1.241.876.487 1.679 1.046 2.409 1.679.73.584 1.29 1.144 1.679 1.679-.535.535-1.241 1.29-2.117 2.263-.876.925-1.727 1.922-2.555 2.993-.827 1.022-1.581 1.995-2.263 2.92-.681.925-1.119 1.582-1.314 1.971-.584-.097-1.095-.341-1.533-.73-.438-.438-.657-.852-.657-1.241zm1.484 35.113c.244-1.411.657-3.261 1.241-5.548.633-2.336 1.363-4.794 2.19-7.373.828-2.628 1.704-5.256 2.628-7.884.925-2.628 1.825-4.988 2.701-7.081.633-1.509 1.193-2.677 1.679-3.504.487-.876 1.022-1.606 1.606-2.19.682.097 1.387.268 2.117.511s1.436.535 2.117.876c.682.341 1.29.706 1.825 1.095.536.341.949.681 1.241 1.022-1.314 1.557-2.482 3.334-3.504 5.329-.973 1.995-1.971 4.55-2.993 7.665 2.628-2.336 4.94-4.575 6.935-6.716 2.044-2.141 3.942-4.526 5.694-7.154.292-.243.803-.365 1.533-.365.682 0 1.339.122 1.971.365.633.195 1.071.487 1.314.876-.876 2.336-1.314 4.648-1.314 6.935 0 2.141.317 3.747.949 4.818-.048.292-.389.852-1.022 1.679-.584.827-1.241 1.606-1.971 2.336-1.314-.681-2.482-1.606-3.504-2.774-1.022-1.217-1.776-2.531-2.263-3.942-2.287 1.606-4.234 3.188-5.84 4.745-1.606 1.509-2.993 3.212-4.161 5.11-1.119 1.849-2.092 3.991-2.92 6.424-.778 2.433-1.533 5.329-2.263 8.687-.438-.049-.973-.219-1.606-.511-.584-.243-1.192-.56-1.825-.949-.584-.389-1.119-.803-1.606-1.241-.486-.438-.803-.852-.949-1.241zm56.38-28.032c.486 0 1.046.097 1.679.292.681.146 1.289.365 1.825.657.535.243.973.511 1.314.803.389.292.584.56.584.803-.974 2.044-1.874 4.112-2.701 6.205-.828 2.044-1.533 4.015-2.117 5.913-.584 1.898-1.047 3.674-1.387 5.329-.292 1.655-.438 3.09-.438 4.307 0 1.363.146 2.506.438 3.431.292.876.778 1.509 1.46 1.898-.584.389-1.339.706-2.263.949-.925.243-1.752.365-2.482.365-2.628 0-3.942-1.801-3.942-5.402 0-2.774.924-6.57 2.774-11.388-.974 2.239-2.093 4.356-3.358 6.351-1.266 1.947-2.555 3.674-3.869 5.183s-2.653 2.75-4.015 3.723c-1.314.925-2.531 1.484-3.65 1.679-1.801-.097-3.261-.949-4.38-2.555-1.12-1.655-1.679-3.747-1.679-6.278 0-2.725.584-5.597 1.752-8.614 1.168-3.017 2.652-5.816 4.453-8.395 1.849-2.579 3.844-4.721 5.986-6.424 2.141-1.752 4.209-2.677 6.205-2.774.486.146 1.022.438 1.606.876.632.438 1.216.949 1.752 1.533.584.584 1.07 1.192 1.46 1.825.389.584.608 1.095.657 1.533-1.947.292-3.967 1.241-6.059 2.847-2.044 1.606-3.918 3.553-5.621 5.84-1.655 2.239-3.018 4.648-4.088 7.227-1.071 2.579-1.606 4.988-1.606 7.227 0 .925.34 1.509 1.022 1.752 1.411-.292 3.041-1.484 4.891-3.577 1.849-2.141 4.088-5.426 6.716-9.855.486-.876 1.022-1.849 1.606-2.92.632-1.071 1.265-2.19 1.898-3.358.632-1.168 1.241-2.336 1.825-3.504.632-1.217 1.216-2.385 1.752-3.504zm9.032 24.82c0-2.141.511-5.134 1.533-8.979 1.022-3.893 2.457-8.419 4.307-13.578 3.017-8.225 5.84-15.062 8.468-20.513 2.676-5.499 5.28-9.782 7.811-12.848.584.0973 1.289.3407 2.117.73.876.3893 1.727.8273 2.555 1.314.827.438 1.557.9003 2.19 1.387.681.4867 1.119.876 1.314 1.168-3.796 4.477-7.13 9.295-10.001 14.454-2.872 5.159-5.5 11.072-7.884 17.739-2.044 5.743-3.602 10.926-4.672 15.549-1.071 4.575-1.606 8.395-1.606 11.461v1.533c0 .195.024.389.073.584-.682-.097-1.266-.268-1.752-.511-.487-.243-.803-.535-.949-.876-.098-.243-.365-.608-.803-1.095-.438-.438-.828-.779-1.168-1.022-.438-.292-.803-1.046-1.095-2.263-.292-1.265-.438-2.677-.438-4.234z" fill="#737373"/>
</svg>
